PathFileType	4	(X/Y/Z)	C:\Users\Gabre\Documents\2-Sophmore\Autumn\ME 191\Nick_10292018\Nick_10292018\Upper Extremity\shoulder_flexion.trc
DataRate	CameraRate	NumFrames	NumMarkers	Units	OrigDataRate	OrigDataStartFrame	OrigNumFrames
100.00	100.00	       10	21	mm	100.00	311	       621
Frame#	Time	Back_IMU_O			Back_IMU_D			Back_IMU_X			Back_IMU_Y			C7			R.Acromion			L.Acromion			R.Elbow			R.Radius			R.Ulna			R.Hand			Humerus_IMU_O			Humerus_IMU_D			Humerus_IMU_X			Humerus_IMU_Y			Forearm_IMU_O			Forearm_IMU_D			Forearm_IMU_X			Forearm_IMU_Y			Hand_IMU_O			Scapula_IMU_O			
		X1	Y1	Z1	X2	Y2	Z2	X3	Y3	Z3	X4	Y4	Z4	X5	Y5	Z5	X6	Y6	Z6	X7	Y7	Z7	X8	Y8	Z8	X9	Y9	Z9	X10	Y10	Z10	X11	Y11	Z11	X12	Y12	Z12	X13	Y13	Z13	X14	Y14	Z14	X15	Y15	Z15	X16	Y16	Z16	X17	Y17	Z17	X18	Y18	Z18	X19	Y19	Z19	X20	Y20	Z20	X21	Y21	Z21	

311	3.100	-902.64227	442.59665	1009.71869	-913.43542	519.76971	901.19818	-903.95233	528.36737	1003.55780	-912.29694	435.32449	907.50775	-893.82983	486.80243	1026.67822	-843.36273	371.73007	1041.08215	-808.51428	662.54004	994.45178	-703.69189	232.16077	1257.73083	-693.03833	275.46140	1533.73364	-657.58582	232.94980	1518.90222	-671.68860	260.36697	1643.84253	-821.21790	338.89063	1133.51306	-771.37836	221.42741	1120.85315	-812.64264	245.93658	1073.61499	-780.52789	312.89026	1178.16943	-725.44592	279.14368	1468.99255	-643.18341	210.03908	1487.26172	-657.38220	212.01341	1442.58667	-711.84106	275.36707	1513.75562	-671.60638	236.04379	1595.29089	-870.22626	333.33191	1032.68738	
312	3.110	-902.46515	442.63931	1009.77698	-913.39716	519.86176	901.20135	-903.90564	528.35577	1003.56384	-912.23730	435.43369	907.48669	-893.71869	486.80524	1026.67749	-843.33954	371.76965	1041.09424	-808.43390	662.54987	994.43512	-703.69189	232.16077	1257.73083	-692.97766	275.52036	1533.72546	-657.66681	233.07249	1518.92627	-671.45496	260.55533	1643.75293	-821.02716	338.98218	1133.49597	-771.37836	221.42741	1120.85315	-812.78558	246.06499	1073.67847	-780.45850	312.91528	1178.19226	-725.71765	279.34363	1469.07776	-643.37543	210.19742	1487.37610	-657.67676	212.13144	1442.68201	-711.85168	275.53436	1513.80566	-671.67590	236.25082	1595.30957	-870.20154	333.49454	1032.73230	
313	3.120	-902.30054	442.62985	1009.78241	-913.39716	519.86176	901.20135	-903.82349	528.41241	1003.54089	-912.19965	435.43225	907.45691	-893.56897	486.92313	1026.69824	-843.23126	371.85858	1041.05176	-808.31793	662.57501	994.41962	-703.65790	232.28227	1257.75500	-692.96179	275.69427	1533.76721	-657.72156	233.26663	1518.96460	-671.65808	260.64236	1643.81567	-821.19104	339.04221	1133.54651	-771.45184	221.46123	1120.91467	-812.66150	246.12062	1073.63782	-780.66125	312.99066	1178.25574	-726.97003	279.44717	1469.34668	-643.25409	210.25484	1487.36353	-657.82416	212.19258	1442.74548	-711.84485	275.68546	1513.68665	-671.78284	236.36162	1595.36877	-870.03760	333.56091	1032.62830	
314	3.130	-902.26172	442.62842	1009.75189	-913.23389	519.94019	901.26038	-903.71411	528.42389	1003.54413	-911.94293	435.58157	907.39325	-893.43628	487.04013	1026.70581	-843.24078	371.98685	1041.05664	-808.17810	662.62073	994.39777	-703.65790	232.28227	1257.75500	-692.96289	275.77194	1533.77246	-657.75513	233.35704	1518.96606	-671.37469	260.86356	1643.74341	-821.10199	339.11511	1133.52783	-771.21619	221.68556	1120.79346	-812.65887	246.22852	1073.64038	-780.86737	313.06815	1178.32825	-727.02368	279.49350	1469.36255	-643.36432	210.29994	1487.40540	-657.70190	212.24866	1442.73987	-711.85004	275.77222	1513.73706	-671.83051	236.50589	1595.36975	-870.02136	333.72379	1032.59875	
315	3.140	-902.20227	442.64807	1009.74835	-913.21088	519.99628	901.26178	-903.60022	528.49597	1003.53711	-911.92352	435.67526	907.41498	-893.35327	487.06052	1026.68213	-843.22382	372.13910	1041.12866	-808.10388	662.63348	994.36121	-703.62097	232.32713	1257.72131	-692.94916	275.87781	1533.68481	-657.88824	233.53766	1519.03345	-671.29681	260.94373	1643.66699	-820.98315	339.17941	1133.49207	-771.46960	221.78825	1120.88806	-812.74066	246.29063	1073.63879	-780.71313	313.19501	1178.11975	-726.96417	279.71353	1469.41760	-643.31854	210.39182	1487.44800	-657.59833	212.36888	1442.80823	-711.78802	275.91144	1513.81824	-671.80511	236.71117	1595.36780	-869.98859	333.76520	1032.63696	
316	3.150	-902.13507	442.74609	1009.71484	-913.04938	520.11505	901.20148	-903.34930	528.62225	1003.42346	-911.84351	435.74725	907.47449	-893.29712	487.18665	1026.74036	-843.04346	372.24698	1041.12512	-807.95557	662.71594	994.27100	-703.63513	232.39877	1257.76025	-692.91571	275.91016	1533.68762	-658.05988	233.55363	1519.03271	-671.35925	261.09137	1643.70349	-820.65033	339.38214	1133.31409	-771.56616	221.82556	1120.90869	-812.76569	246.39598	1073.65356	-780.51294	313.29276	1178.09277	-727.01135	279.75800	1469.44543	-643.36713	210.40613	1487.42517	-657.59833	212.36888	1442.80823	-711.91498	276.07294	1513.81714	-671.89337	236.89815	1595.36902	-869.89636	333.82263	1032.64539	
317	3.160	-902.07196	442.82343	1009.77319	-912.97357	520.17145	901.21124	-903.27173	528.79022	1003.51489	-911.57385	435.82361	907.39343	-893.20801	487.28659	1026.73010	-842.91364	372.26437	1041.09924	-807.85651	662.77759	994.24323	-703.62097	232.32713	1257.72131	-692.86670	275.96460	1533.68225	-657.70471	233.66389	1518.86475	-671.29913	261.24881	1643.63916	-820.58777	339.46136	1133.35754	-771.45844	221.87184	1120.90503	-812.87213	246.50133	1073.73340	-780.39130	313.36362	1178.03467	-726.97083	279.86972	1469.41943	-643.26337	210.46625	1487.35962	-657.59833	212.36888	1442.80823	-711.83759	276.19373	1513.69019	-671.87073	237.00407	1595.34998	-869.82739	333.89105	1032.62341	
318	3.170	-901.94763	442.82956	1009.73755	-912.94769	520.20337	901.23615	-903.19342	528.86218	1003.50281	-911.52850	435.89838	907.44702	-893.12878	487.27969	1026.70898	-842.58087	372.35583	1041.05933	-807.76709	662.87598	994.25702	-703.51642	232.39723	1257.74963	-692.83942	276.01926	1533.60156	-657.65948	233.77184	1518.92798	-671.21893	261.28888	1643.60986	-820.58777	339.46136	1133.35754	-771.47150	221.94980	1120.82397	-812.91693	246.55460	1073.79651	-780.20148	313.47321	1177.94751	-726.97083	279.86972	1469.41943	-643.11029	210.49600	1487.39819	-657.59833	212.36888	1442.80823	-711.61469	276.20798	1513.63062	-671.78271	237.02710	1595.38953	-869.63074	333.93118	1032.66553	
319	3.180	-901.86963	443.10052	1009.82562	-912.66577	520.34039	901.12195	-903.06525	528.92346	1003.47290	-911.51587	435.97903	907.49799	-893.02478	487.32254	1026.67456	-842.42322	372.44357	1041.01245	-807.63464	662.94629	994.25684	-703.51642	232.39723	1257.74963	-692.72656	276.10483	1533.52271	-657.66998	233.77850	1519.09387	-671.23132	261.54654	1643.62195	-820.58777	339.46136	1133.35754	-771.63336	222.02246	1120.94434	-812.83862	246.56009	1073.77759	-780.23395	313.48993	1178.00073	-726.97083	279.86972	1469.41943	-643.15894	210.51033	1487.37537	-657.51385	212.42227	1442.73462	-711.58807	276.26297	1513.63696	-671.85626	237.21001	1595.45850	-869.61829	334.02124	1032.72083	
320	3.190	-901.57935	443.21265	1009.74170	-912.69696	520.48846	901.11493	-902.80298	529.05585	1003.41010	-911.46417	436.11276	907.58002	-892.85553	487.44717	1026.69824	-842.33234	372.42511	1041.08215	-807.79718	662.81989	994.33453	-703.51642	232.39723	1257.74963	-692.68494	276.16907	1533.59741	-657.56232	233.78325	1518.97095	-671.07031	261.67810	1643.58350	-820.55634	339.45389	1133.38672	-771.13940	222.13753	1120.79810	-812.63434	246.76587	1073.80151	-780.23395	313.48993	1178.00073	-726.82562	279.90295	1469.45557	-643.11029	210.49600	1487.39819	-657.51385	212.42227	1442.73462	-711.58807	276.26297	1513.63696	-671.64594	237.21754	1595.44080	-869.55139	334.11005	1032.78271	
